<?xml version="1.0" encoding="UTF-8"?>
<svg width="54px" height="54px" viewBox="0 0 54 54" version="1.1" xmlns="http://www.w3.org/2000/svg" xmlns:xlink="http://www.w3.org/1999/xlink">
    <!-- Generator: Sketch 42 (36781) - http://www.bohemiancoding.com/sketch -->
    <title>icon-error</title>
    <desc>Created with Sketch.</desc>
    <defs></defs>
    <g id="Page-1" stroke="none" stroke-width="1" fill="none" fill-rule="evenodd">
        <path d="M27,5.01428571 C39.1114286,5.01428571 48.9857143,14.8885714 48.9857143,27 C48.9857143,39.1114286 39.1114286,48.9857143 27,48.9857143 C14.8885714,48.9857143 5.01428571,39.1114286 5.01428571,27 C5.01428571,14.8885714 14.8885714,5.01428571 27,5.01428571 L27,5.01428571 Z M27,0 C12.1114286,8.56457762e-16 0,12.1114286 0,27 C0,41.8885714 12.1114286,54 27,54 C41.8885714,54 54,41.8885714 54,27 C54,12.1114286 41.8885714,8.56457762e-16 27,8.56457762e-16 L27,0 Z M30.8571429,11.5714286 L23.1428571,11.5714286 L23.1428571,30.8571429 L30.8571429,30.8571429 L30.8571429,11.5714286 L30.8571429,11.5714286 Z M30.8571429,34.7142857 L23.1428571,34.7142857 L23.1428571,42.4285714 L30.8571429,42.4285714 L30.8571429,34.7142857 L30.8571429,34.7142857 Z" id="icon-error" fill="#D34A5B"></path>
    </g>
</svg>