<?xml version="1.0" encoding="UTF-8"?>
<svg width="71px" height="71px" viewBox="0 0 71 71" version="1.1" xmlns="http://www.w3.org/2000/svg" xmlns:xlink="http://www.w3.org/1999/xlink">
    <!-- Generator: Sketch 42 (36781) - http://www.bohemiancoding.com/sketch -->
    <title>icon-update</title>
    <desc>Created with Sketch.</desc>
    <defs></defs>
    <g id="Icons" stroke="none" stroke-width="1" fill="none" fill-rule="evenodd">
        <path d="M35.5,71 C15.8938914,71 0,55.1061086 0,35.5 C0,15.8938914 15.8938914,0 35.5,0 C55.1061086,0 71,15.8938914 71,35.5 C71,55.1061086 55.1061086,71 35.5,71 Z M39.375,50.125 L39.375,33.25 L32.625,33.25 L32.625,50.125 L25.875,50.125 L36,60.25 L46.125,50.125 L39.375,50.125 Z M49.5,23.125 C49.5,21.64 46.42875,13 34.3125,13 C26.145,13 19.125,19.48 19.125,26.5 C12.4425,26.5 9,31.63 9,36.625 C9,41.78875 12.375,46.75 19.125,46.75 L29.25,46.75 L29.25,42.3625 L19.125,42.3625 C13.6575,42.3625 13.3875,37.57 13.3875,36.625 C13.3875,36.05125 13.55625,30.8875 19.125,30.8875 L23.5125,30.8875 L23.5125,26.5 C23.5125,21.80875 28.7775,17.3875 34.3125,17.3875 C42.91875,17.3875 44.87625,22.61875 45.1125,23.4625 L45.1125,27.5125 L49.5,27.5125 C52.23375,27.5125 58.6125,28.255 58.6125,34.9375 C58.6125,41.99125 51.01875,42.3625 49.5,42.3625 L42.75,42.3625 L42.75,46.75 L49.5,46.75 C56.52,46.75 63,42.835 63,34.9375 C63,26.7025 56.52,23.125 49.5,23.125 Z" id="icon-update" fill="#198BB0"></path>
    </g>
</svg>