<?xml version="1.0" encoding="UTF-8"?>
<svg width="72px" height="72px" viewBox="0 0 72 72" version="1.1" xmlns="http://www.w3.org/2000/svg" xmlns:xlink="http://www.w3.org/1999/xlink">
    <!-- Generator: Sketch 42 (36781) - http://www.bohemiancoding.com/sketch -->
    <title>icon-git</title>
    <desc>Created with Sketch.</desc>
    <defs></defs>
    <g id="Icons" stroke="none" stroke-width="1" fill="none" fill-rule="evenodd">
        <path d="M36,72 C16.117749,72 0,55.882251 0,36 C0,16.117749 16.117749,0 36,0 C55.882251,0 72,16.117749 72,36 C72,55.882251 55.882251,72 36,72 Z M45.6152515,32.0418546 L47.7497494,31.8792618 L47.7497494,29.9081564 L43.2259359,29.9081564 C42.6923114,29.7679533 42.088852,29.6762616 41.0911715,29.6762616 C37.5426487,29.6762616 35.7794489,31.5082302 35.7794489,34.1755529 C35.7794489,35.8923737 36.6379926,37.0987595 37.7745434,37.6555735 C37.2177295,38.1657419 36.75394,38.6071416 36.3365294,39.0472085 C35.9183192,39.4883416 35.6635015,39.9521311 35.6635015,40.4628327 C35.6635015,41.0894816 35.9183192,41.6692185 36.684105,41.992805 C35.8722068,42.7596569 35.4081508,43.3151381 35.4081508,44.3591976 C35.4081508,46.1916992 37.0087576,47.2586817 41.2073854,47.2586817 C45.2439533,47.2586817 47.5863569,45.7516323 47.5863569,43.0832434 C47.5863569,39.9993097 45.2210304,39.8830958 41.2073854,39.6272119 L38.9342837,39.4883416 L39.7000695,38.2590329 C40.1172135,38.3749803 40.7899748,38.4674716 41.5331042,38.4674716 C44.4552446,38.4674716 46.4735286,36.9598892 46.4735286,34.3850578 C46.4735286,33.3180754 46.032129,32.5754791 45.6152515,32.0418546 Z M38.7487679,42.6207866 L42.1349644,42.8516152 C43.2491254,42.9214501 44.1308585,42.967296 44.1308585,43.7109585 C44.1308585,44.9618574 42.2980904,45.0562146 40.9525677,45.0562146 C39.3282383,45.0562146 38.1458416,44.7771413 38.1458416,43.8498288 C38.1458416,43.3852397 38.4467717,42.9912851 38.7487679,42.6207866 Z M41.3004098,31.9717531 C42.6224765,31.9717531 43.4114517,32.6914265 43.4114517,34.0596055 C43.4114517,35.266791 42.5297186,36.0317771 41.231641,36.0317771 C39.7000695,36.0317771 39.0736871,35.2428019 39.0736871,34.1065176 C39.0736871,32.598402 40.0241891,31.9717531 41.3004098,31.9717531 Z M51.8308305,27.8264345 C53.1763531,27.8264345 53.9418724,27.0603822 53.9418724,25.7375159 C53.9418724,24.4165155 53.1763531,23.6968421 51.8308305,23.6968421 C50.5082308,23.6968421 49.7429781,24.4165155 49.7429781,25.7375159 C49.7429781,27.0603822 50.5082308,27.8264345 51.8308305,27.8264345 Z M48.8377889,41.7670408 L55.4497214,41.7670408 L55.4497214,39.9353388 L54.266525,39.7735455 C53.9176167,39.7266335 53.8952269,39.6805211 53.8952269,39.3086898 L53.8952269,29.6823922 L49.0928731,29.6823922 L48.8377889,31.5607397 L50.0902871,32.0018728 C50.3229815,32.0709081 50.3922834,32.2340341 50.3922834,32.4885852 L50.3922834,39.3086898 C50.3922834,39.6573316 50.346171,39.7266335 50.0212518,39.7735455 L48.8377889,39.9353388 L48.8377889,41.7670408 Z M64.6231579,40.8677156 L63.9962424,38.8259756 C63.4394285,39.0346809 62.7674668,39.1967406 62.1170953,39.1967406 C60.8651302,39.1967406 60.5399444,38.6636493 60.5399444,37.2949371 L60.5399444,31.7510533 L63.9962424,31.7510533 L63.9962424,29.4315727 L60.7257268,29.4315727 C60.5399444,29.4315727 60.5399444,29.3614712 60.5399444,29.1996779 L60.5399444,25.9046401 L58.3358781,25.9046401 C58.0807939,28.4330925 57.2694288,29.4539625 55.2274222,29.6863904 L55.2274222,31.7510533 L56.8509521,31.7510533 C57.0372675,31.7510533 57.0372675,31.8440777 57.0372675,31.982948 L57.0372675,38.0604564 C57.0372675,40.6829994 58.0807939,41.7952946 60.8411411,41.7952946 C62.1640073,41.7952946 63.6252108,41.354428 64.6231579,40.8677156 Z M30.2515578,34.7800785 L19.6449051,24.1742254 C19.0345154,23.5633027 18.0437651,23.5633027 17.4325758,24.1742254 L15.2301088,26.3766925 L18.0240407,29.1706244 C18.673346,28.9512573 19.4178081,29.0983906 19.9354399,29.6160223 C20.4554705,30.1368526 20.6015376,30.8877118 20.3768395,31.5391495 L23.0694841,34.231794 C23.7209218,34.0073626 24.4725807,34.15263 24.9928778,34.6737268 C25.7200145,35.4005969 25.7200145,36.5787289 24.9928778,37.3061321 C24.2654747,38.0335352 23.0873427,38.0335352 22.359673,37.3061321 C21.8127212,36.7586472 21.6775825,35.9552785 21.9545235,35.281451 L19.4433965,32.770324 L19.44313,39.3785248 C19.6203829,39.4664849 19.7877736,39.5834984 19.9354399,39.7306317 C20.6625765,40.4575018 20.6625765,41.6356337 19.9354399,42.36357 C19.2080367,43.0907067 18.0293716,43.0907067 17.3030346,42.36357 C16.575898,41.6356337 16.575898,40.4575018 17.3030346,39.7306317 C17.4826864,39.5512464 17.6905921,39.4155747 17.9123581,39.324416 L17.9123581,32.6546432 C17.6905921,32.5640176 17.482953,32.4291455 17.3030346,32.2484275 C16.7520847,31.6982772 16.6196115,30.8898442 16.9018834,30.2133512 L14.1479333,27.458868 L6.87523406,34.7310341 C6.26404479,35.3424899 6.26404479,36.3332403 6.87523406,36.944163 L17.4818868,47.5502826 C18.092543,48.1612054 19.0830268,48.1612054 19.6944826,47.5502826 L30.2515578,36.993474 C30.8624805,36.3822847 30.8624805,35.3910013 30.2515578,34.7800785 Z" id="icon-git" fill="#198BB0"></path>
    </g>
</svg>