<?xml version="1.0" encoding="UTF-8"?>
<svg width="72px" height="72px" viewBox="0 0 72 72" version="1.1" xmlns="http://www.w3.org/2000/svg" xmlns:xlink="http://www.w3.org/1999/xlink">
    <!-- Generator: Sketch 42 (36781) - http://www.bohemiancoding.com/sketch -->
    <title>icon-catalog</title>
    <desc>Created with Sketch.</desc>
    <defs></defs>
    <g id="Icons" stroke="none" stroke-width="1" fill="none" fill-rule="evenodd">
        <path d="M36,72 C16.117749,72 0,55.882251 0,36 C0,16.117749 16.117749,0 36,0 C55.882251,0 72,16.117749 72,36 C72,55.882251 55.882251,72 36,72 Z M18.4175824,17.8901099 L13.1978022,38.7692308 L17.3186813,38.7692308 L17.3186813,32.1758242 C17.3163187,31.6332335 17.7743582,31.1278352 18.3145604,31.0769231 C18.3488736,31.0753297 18.3832692,31.0753297 18.4175824,31.0769231 L20.0659341,31.0769231 L20.0659341,23.3846154 C20.0635714,22.8420247 20.521611,22.3366264 21.0618132,22.2857143 C21.0961264,22.2841209 21.130522,22.2841209 21.1648352,22.2857143 L22.8131868,22.2857143 L22.8131868,17.8901099 L18.4175824,17.8901099 Z M25.010989,15.6923077 L25.010989,22.2857143 L46.989011,22.2857143 L46.989011,15.6923077 L25.010989,15.6923077 Z M49.1868132,17.8901099 L49.1868132,22.2857143 L50.8351648,22.2857143 C51.4105324,22.285772 51.9340082,22.8092478 51.9340659,23.3846154 L51.9340659,31.0769231 L53.5824176,31.0769231 C54.1577852,31.0769808 54.681261,31.6004566 54.6813187,32.1758242 L54.6813187,38.7692308 L58.8021978,38.7692308 L53.5824176,17.8901099 L49.1868132,17.8901099 Z M22.2637363,24.4835165 L22.2637363,31.0769231 L49.7362637,31.0769231 L49.7362637,24.4835165 L22.2637363,24.4835165 Z M19.5164835,33.2747253 L19.5164835,38.7692308 L26.6593407,38.7692308 C27.2347082,38.7692885 27.7581841,39.2927643 27.7582418,39.8681319 L27.7582418,43.1648352 L44.2417582,43.1648352 L44.2417582,39.8681319 C44.2418159,39.2927643 44.7652918,38.7692885 45.3406593,38.7692308 L52.4835165,38.7692308 L52.4835165,33.2747253 L19.5164835,33.2747253 Z M12.9230769,40.967033 L12.9230769,53.0549451 L59.0769231,53.0549451 L59.0769231,40.967033 L46.4395604,40.967033 L46.4395604,44.2637363 C46.4395027,44.8391038 45.9160269,45.3625797 45.3406593,45.3626374 L26.6593407,45.3626374 C26.0839731,45.3625797 25.5604973,44.8391038 25.5604396,44.2637363 L25.5604396,40.967033 L12.9230769,40.967033 Z" id="icon-catalog" fill="#198BB0"></path>
    </g>
</svg>