<?xml version="1.0" encoding="UTF-8"?>
<svg width="242px" height="217px" viewBox="0 0 242 217" version="1.1" xmlns="http://www.w3.org/2000/svg" xmlns:xlink="http://www.w3.org/1999/xlink">
    <!-- Generator: Sketch 42 (36781) - http://www.bohemiancoding.com/sketch -->
    <title>site-icon</title>
    <desc>Created with Sketch.</desc>
    <defs></defs>
    <g id="plugin-icons" stroke="none" stroke-width="1" fill="none" fill-rule="evenodd">
        <g id="icon" transform="translate(-29.000000, -42.000000)" fill-rule="nonzero" fill="#FFFFFF">
            <path d="M81.8,49.1448408 L150,42 L218.2,49.1448408 L271,119.382259 L150,259.009402 L29,119.382259 L81.8,49.1448408 Z M224.890777,108.315821 L224.890777,98.8147143 L186.207698,98.8147143 L186.207698,79.8125 L166.866158,79.8125 L166.866158,89.3136071 L147.524619,89.3136071 C137.563726,89.3136071 130.407356,97.0095039 128.183079,108.315821 L118.512309,117.816929 C102.458831,117.816929 89.5,130.548412 89.5,146.32025 L89.5,165.322464 L99.1707698,165.322464 L99.1707698,146.32025 C99.1707698,135.774021 107.777755,127.318036 118.512309,127.318036 L128.183079,136.819143 C130.600771,147.840427 137.660433,155.821357 147.524619,155.821357 L166.866158,155.821357 L166.866158,165.322464 L186.207698,165.322464 L186.207698,146.32025 L224.890777,146.32025 L224.890777,136.819143 L186.207698,136.819143 L186.207698,108.315821 L224.890777,108.315821 Z" id="site-icon"></path>
        </g>
    </g>
</svg>