<?xml version="1.0" encoding="UTF-8"?>
<svg width="150px" height="135px" viewBox="0 0 150 135" version="1.1" xmlns="http://www.w3.org/2000/svg" xmlns:xlink="http://www.w3.org/1999/xlink">
    <!-- Generator: Sketch 42 (36781) - http://www.bohemiancoding.com/sketch -->
    <title>site-icon</title>
    <desc>Created with Sketch.</desc>
    <defs></defs>
    <g id="Icons" stroke="none" stroke-width="1" fill="none" fill-rule="evenodd">
        <path d="M32.7272727,4.42862033 L75.0000001,0 L117.272727,4.42862033 L150,47.9642101 L75.0000001,134.50996 L0,47.9642101 L32.7272727,4.42862033 Z M121.419903,41.104848 L121.419903,35.215732 L97.4427878,35.215732 L97.4427878,23.4375 L85.4542302,23.4375 L85.4542302,29.326616 L73.4656727,29.326616 C67.2915655,29.326616 62.8557992,34.0967999 61.4771151,41.104848 L55.4828363,46.993964 C45.5323336,46.993964 37.5,54.8853794 37.5,64.661312 L37.5,76.4395439 L43.4942788,76.4395439 L43.4942788,64.661312 C43.4942788,58.1243932 48.8291869,52.88308 55.4828363,52.88308 L61.4771151,58.772196 C62.9756848,65.6035705 67.3515083,70.5504279 73.4656727,70.5504279 L85.4542302,70.5504279 L85.4542302,76.4395439 L97.4427878,76.4395439 L97.4427878,64.661312 L121.419903,64.661312 L121.419903,58.772196 L97.4427878,58.772196 L97.4427878,41.104848 L121.419903,41.104848 Z" id="site-icon" fill="#FFFFFF" fill-rule="nonzero"></path>
    </g>
</svg>